<svg width="288" height="288" viewBox="0 0 288 288" fill="none" xmlns="http://www.w3.org/2000/svg">
<path fill-rule="evenodd" clip-rule="evenodd" d="M286 32C286 42.4497 279.322 51.3397 270 54.6344V146C270 166.987 252.987 184 232 184C211.013 184 194 166.987 194 146V140V128V104L230 140H210V146C210 158.15 219.85 168 232 168C244.15 168 254 158.15 254 146V54.6344C244.678 51.3397 238 42.4497 238 32C238 18.7452 248.745 8 262 8C275.255 8 286 18.7452 286 32ZM262 40C266.418 40 270 36.4183 270 32C270 27.5817 266.418 24 262 24C257.582 24 254 27.5817 254 32C254 36.4183 257.582 40 262 40Z" fill="#CCCCCC"/>
<path fill-rule="evenodd" clip-rule="evenodd" d="M286 32C286 42.4497 279.322 51.3397 270 54.6344V146C270 166.987 252.987 184 232 184C211.013 184 194 166.987 194 146V140V128V104L230 140H210V146C210 158.15 219.85 168 232 168C244.15 168 254 158.15 254 146V54.6344C244.678 51.3397 238 42.4497 238 32C238 18.7452 248.745 8 262 8C275.255 8 286 18.7452 286 32ZM262 40C266.418 40 270 36.4183 270 32C270 27.5817 266.418 24 262 24C257.582 24 254 27.5817 254 32C254 36.4183 257.582 40 262 40Z" fill="url(#paint0_linear_15_3)"/>
<path fill-rule="evenodd" clip-rule="evenodd" d="M262 48C270.837 48 278 40.8366 278 32C278 23.1634 270.837 16 262 16C253.163 16 246 23.1634 246 32C246 40.8366 253.163 48 262 48ZM262 40C266.418 40 270 36.4183 270 32C270 27.5817 266.418 24 262 24C257.582 24 254 27.5817 254 32C254 36.4183 257.582 40 262 40Z" fill="url(#paint1_linear_15_3)"/>
<path d="M286 32C286 42.4497 279.322 51.3397 270 54.6344V146C270 158.194 264.256 169.047 255.327 176H232C248.569 176 262 162.569 262 146V48C270.837 48 278 40.8366 278 32C278 23.1634 270.837 16 262 16H279.889C283.689 20.2461 286 25.8532 286 32Z" fill="url(#paint2_linear_15_3)"/>
<path d="M202 126L230 140H210L202 126Z" fill="url(#paint3_linear_15_3)"/>
<path d="M25.6141 179.581C20.4141 163.381 18.9141 146.281 21.9141 128.681C23.2141 121.381 25.2141 114.381 27.4141 107.281C27.4141 107.281 41.2141 61.9809 87.9141 41.2809C87.9141 41.2809 104.014 32.7809 128.214 32.1809C128.214 32.1809 124.914 28.9809 122.814 27.5809C111.414 19.9809 94.4141 17.4809 84.1141 28.1809C81.0141 31.3809 78.4141 34.8809 75.5141 38.0809C72.2141 41.6809 68.2141 44.6809 63.6141 46.3809C59.6141 47.8809 55.6141 47.5809 51.5141 48.2809C47.3141 48.9809 43.0141 50.4809 39.6141 53.1809C35.9141 56.1809 34.4141 60.1809 34.0141 64.7809C33.6141 68.3809 33.7141 72.0809 33.5141 75.6809C33.0141 86.2809 29.6141 89.2809 22.0141 95.1809C18.8141 97.5809 16.1141 100.781 14.1141 104.181C8.11407 114.781 17.7141 125.781 18.2141 136.481C18.3141 138.681 18.1141 140.881 17.3141 142.981C16.5141 145.281 14.9141 146.781 13.6141 148.681C11.8141 151.181 10.6141 154.181 11.1141 157.281C11.6141 160.381 13.2141 163.281 14.7141 165.981C17.6141 170.781 21.2141 175.081 25.0141 179.181C25.2141 179.181 25.4141 179.381 25.6141 179.581Z" fill="#E32286"/>
<path d="M87.0555 198.783C87.0555 198.783 70.7555 170.983 82.5555 139.283C94.3555 107.583 130.055 100.783 130.055 100.783C159.555 115.083 184.555 119.583 184.555 119.583C237.255 128.383 234.255 102.583 234.255 102.583C234.755 80.3829 201.255 56.7829 201.255 56.7829C141.555 12.4829 87.5555 41.0829 87.5555 41.0829C40.8555 61.7829 27.0555 107.083 27.0555 107.083C24.8555 114.183 22.8555 121.183 21.5555 128.483C16.4555 158.183 24.1555 186.283 40.8555 211.283C91.7333 287.208 230.87 295.242 261.455 195.283C234.255 251 122.569 268.21 87.0555 198.783Z" fill="url(#paint4_linear_15_3)"/>
<path d="M234.514 102.681C235.014 80.4808 201.514 56.8808 201.514 56.8808C141.814 12.6808 87.8141 41.2808 87.8141 41.2808C41.1141 61.9809 27.3141 107.281 27.3141 107.281C24.6141 114.981 22.2141 126.781 22.2141 126.781C19.3141 141.581 20.6141 155.281 20.6141 155.281C21.8141 168.381 24.7141 177.181 24.7141 177.181C27.7141 186.581 29.1141 189.481 29.1141 189.481C29.0141 189.181 28.5141 186.981 28.5141 186.981C28.5141 186.981 24.3141 166.781 28.2141 147.381C28.2141 147.381 31.6141 127.181 45.4141 111.581C45.4141 111.581 67.8141 79.6809 109.514 92.1809C109.514 92.1809 118.514 95.3808 121.614 96.9808C124.714 98.4808 130.114 100.781 130.114 100.781C159.614 115.081 184.614 119.581 184.614 119.581C237.514 128.481 234.514 102.681 234.514 102.681Z" fill="url(#paint5_radial_15_3)"/>
<path d="M133.414 62.4809L99.3141 51.8809C99.1141 51.8809 98.1141 51.3809 96.3141 51.8809C96.3141 51.8809 76.2141 56.9809 79.7141 67.9809C79.7141 67.9809 81.8141 74.8809 87.5141 81.5809L125.014 79.7809L133.414 62.4809Z" fill="url(#paint6_linear_15_3)"/>
<circle cx="164" cy="74" r="14" fill="#F0F0F0"/>
<circle cx="167" cy="78" r="6" fill="#5D3089"/>
<g style="mix-blend-mode:soft-light">
<circle cx="164" cy="74" r="14" fill="#D72085"/>
</g>
<defs>
<linearGradient id="paint0_linear_15_3" x1="258.108" y1="184" x2="217.629" y2="17.8624" gradientUnits="userSpaceOnUse">
<stop stop-color="#5D2F88"/>
<stop offset="1" stop-color="#D62085"/>
</linearGradient>
<linearGradient id="paint1_linear_15_3" x1="262" y1="24" x2="262.378" y2="47.9941" gradientUnits="userSpaceOnUse">
<stop stop-color="#5D2F88"/>
<stop offset="1" stop-color="#5D2F88" stop-opacity="0"/>
</linearGradient>
<linearGradient id="paint2_linear_15_3" x1="238.75" y1="16" x2="238.75" y2="164.095" gradientUnits="userSpaceOnUse">
<stop stop-color="#5D2F88" stop-opacity="0"/>
<stop offset="0.226403" stop-color="#5D2F88"/>
<stop offset="1" stop-color="#5D2F88" stop-opacity="0"/>
</linearGradient>
<linearGradient id="paint3_linear_15_3" x1="202" y1="126" x2="230.747" y2="138.247" gradientUnits="userSpaceOnUse">
<stop stop-color="#E32286" stop-opacity="0"/>
<stop offset="1" stop-color="#E32286"/>
</linearGradient>
<linearGradient id="paint4_linear_15_3" x1="49.1518" y1="251.784" x2="150" y2="109" gradientUnits="userSpaceOnUse">
<stop stop-color="#E01D84"/>
<stop offset="0.4006" stop-color="#DF1D85"/>
<stop offset="0.695378" stop-color="#932C87"/>
<stop offset="1" stop-color="#5D2F88"/>
</linearGradient>
<radialGradient id="paint5_radial_15_3" cx="0" cy="0" r="1" gradientUnits="userSpaceOnUse" gradientTransform="translate(186.471 84.4837) scale(128.029 107.058)">
<stop stop-color="#E01D84"/>
<stop offset="0.1391" stop-color="#DE1E85"/>
<stop offset="0.2851" stop-color="#D62085"/>
<stop offset="0.4342" stop-color="#C92386"/>
<stop offset="0.5856" stop-color="#B72786"/>
<stop offset="0.7386" stop-color="#9D2B87"/>
<stop offset="0.8909" stop-color="#7C2E88"/>
<stop offset="1" stop-color="#5D2F88"/>
</radialGradient>
<linearGradient id="paint6_linear_15_3" x1="79.2263" y1="66.6166" x2="133.385" y2="66.6166" gradientUnits="userSpaceOnUse">
<stop stop-color="#E01D84"/>
<stop offset="0.2382" stop-color="#DA1E85"/>
<stop offset="0.6577" stop-color="#C72085"/>
</linearGradient>
</defs>
</svg>
