<svg width="269" height="254" viewBox="0 0 269 254" fill="none" xmlns="http://www.w3.org/2000/svg">
<g clip-path="url(#clip0_3_18)">
<path d="M14.6141 162.581C9.41407 146.381 7.91407 129.281 10.9141 111.681C12.2141 104.381 14.2141 97.3809 16.4141 90.2809C16.4141 90.2809 30.2141 44.9809 76.9141 24.2809C76.9141 24.2809 93.0141 15.7809 117.214 15.1809C117.214 15.1809 113.914 11.9809 111.814 10.5809C100.414 2.98085 83.4141 0.480855 73.1141 11.1809C70.0141 14.3809 67.4141 17.8809 64.5141 21.0809C61.2141 24.6809 57.2141 27.6809 52.6141 29.3809C48.6141 30.8809 44.6141 30.5809 40.5141 31.2809C36.3141 31.9809 32.0141 33.4809 28.6141 36.1809C24.9141 39.1809 23.4141 43.1809 23.0141 47.7809C22.6141 51.3809 22.7141 55.0809 22.5141 58.6809C22.0141 69.2809 18.6141 72.2809 11.0141 78.1809C7.81407 80.5809 5.11407 83.7809 3.11407 87.1809C-2.88593 97.7809 6.71407 108.781 7.21407 119.481C7.31407 121.681 7.11407 123.881 6.31407 125.981C5.51407 128.281 3.91407 129.781 2.61407 131.681C0.814069 134.181 -0.385931 137.181 0.114069 140.281C0.614069 143.381 2.21407 146.281 3.71407 148.981C6.61407 153.781 10.2141 158.081 14.0141 162.181C14.2141 162.181 14.4141 162.381 14.6141 162.581Z" fill="#E32286"/>
<path d="M193.755 217.583C161.5 233.5 111.355 213.483 111.355 213.483C87.1555 203.483 76.0555 181.783 76.0555 181.783C76.0555 181.783 59.7555 153.983 71.5555 122.283C83.3555 90.5829 119.055 83.7829 119.055 83.7829C148.555 98.0829 173.555 102.583 173.555 102.583C226.255 111.383 223.255 85.5829 223.255 85.5829C223.755 63.3829 190.255 39.7829 190.255 39.7829C130.555 -4.51707 76.5555 24.0829 76.5555 24.0829C29.8555 44.7829 16.0555 90.0829 16.0555 90.0829C13.8555 97.1829 11.8555 104.183 10.5555 111.483C5.45549 141.183 13.1555 169.283 29.8555 194.283C55.8555 233.083 98.0555 246.483 98.0555 246.483C160.555 267.683 203.255 236.483 203.255 236.483C242.555 209.483 250.455 178.283 250.455 178.283C197.5 217.583 193.755 217.583 193.755 217.583Z" fill="url(#paint0_linear_3_18)"/>
<path d="M223.514 85.6808C224.014 63.4808 190.514 39.8808 190.514 39.8808C130.814 -4.31915 76.8141 24.2808 76.8141 24.2808C30.1141 44.9808 16.3141 90.2808 16.3141 90.2808C13.6141 97.9808 11.2141 109.781 11.2141 109.781C8.31406 124.581 9.61406 138.281 9.61406 138.281C10.8141 151.381 13.7141 160.181 13.7141 160.181C16.7141 169.581 18.1141 172.481 18.1141 172.481C18.0141 172.181 17.5141 169.981 17.5141 169.981C17.5141 169.981 13.3141 149.781 17.2141 130.381C17.2141 130.381 20.6141 110.181 34.4141 94.5808C34.4141 94.5808 56.8141 62.6809 98.5141 75.1809C98.5141 75.1809 107.514 78.3808 110.614 79.9808C113.714 81.4808 119.114 83.7808 119.114 83.7808C148.614 98.0808 173.614 102.581 173.614 102.581C226.514 111.481 223.514 85.6808 223.514 85.6808Z" fill="url(#paint1_radial_3_18)"/>
<path d="M197.474 125.079V121.342H212.684H217.513L214.098 117.928L185.414 89.2437L182 85.8295V90.6579V125.079C182 145.172 198.328 161.5 218.421 161.5C238.515 161.5 254.842 145.172 254.842 125.079V108.183C261.555 105.183 266.316 98.5023 266.316 90.6579C266.316 82.8135 261.555 76.1333 254.842 73.1323V9.73684C254.842 5.4639 251.378 2 247.105 2C242.832 2 239.368 5.4639 239.368 9.73684V73.1323C232.656 76.1333 227.895 82.8135 227.895 90.6579C227.895 98.5023 232.656 105.183 239.368 108.183V125.079C239.368 136.653 229.995 146.026 218.421 146.026C206.847 146.026 197.474 136.653 197.474 125.079ZM247.105 94.3947C245.055 94.3947 243.368 92.7086 243.368 90.6579C243.368 88.6072 245.055 86.9211 247.105 86.9211C249.156 86.9211 250.842 88.6072 250.842 90.6579C250.842 92.7086 249.156 94.3947 247.105 94.3947Z" fill="url(#paint2_linear_3_18)" stroke="#5D2F88" stroke-width="4"/>
<path d="M122.414 45.4809L88.3141 34.8809C88.1141 34.8809 87.1141 34.3809 85.3141 34.8809C85.3141 34.8809 65.2141 39.9809 68.7141 50.9809C68.7141 50.9809 70.8141 57.8809 76.5141 64.5809L114.014 62.7809L122.414 45.4809Z" fill="url(#paint3_linear_3_18)"/>
<path d="M223.514 85.6808C224.014 63.4808 190.514 39.8808 190.514 39.8808C130.814 -4.31915 76.8141 24.2808 76.8141 24.2808C30.1141 44.9808 16.3141 90.2808 16.3141 90.2808C13.6141 97.9808 11.2141 109.781 11.2141 109.781C8.31406 124.581 9.61406 138.281 9.61406 138.281C10.8141 151.381 13.7141 160.181 13.7141 160.181C16.7141 169.581 18.1141 172.481 18.1141 172.481C18.0141 172.181 17.5141 169.981 17.5141 169.981C17.5141 169.981 13.3141 149.781 17.2141 130.381C17.2141 130.381 20.6141 110.181 34.4141 94.5808C34.4141 94.5808 56.8141 62.6809 98.5141 75.1809C98.5141 75.1809 107.514 78.3808 110.614 79.9808C113.714 81.4808 119.114 83.7808 119.114 83.7808C148.614 98.0808 173.614 102.581 173.614 102.581C226.514 111.481 223.514 85.6808 223.514 85.6808Z" fill="url(#paint4_radial_3_18)"/>
<circle cx="156" cy="60" r="11" fill="#F5F5F5"/>
<circle cx="156.5" cy="60.5" r="5.5" fill="#5D3089"/>
</g>
<defs>
<linearGradient id="paint0_linear_3_18" x1="38.1518" y1="234.784" x2="162.587" y2="102.406" gradientUnits="userSpaceOnUse">
<stop stop-color="#E01D84"/>
<stop offset="0.4006" stop-color="#DF1D85"/>
<stop offset="0.7698" stop-color="#932C87"/>
<stop offset="1" stop-color="#5D2F88"/>
</linearGradient>
<radialGradient id="paint1_radial_3_18" cx="0" cy="0" r="1" gradientUnits="userSpaceOnUse" gradientTransform="translate(175.471 67.4837) rotate(0.13682) scale(121.582 101.667)">
<stop stop-color="#E01D84"/>
<stop offset="0.1391" stop-color="#DE1E85"/>
<stop offset="0.2851" stop-color="#D62085"/>
<stop offset="0.4342" stop-color="#C92386"/>
<stop offset="0.5856" stop-color="#B72786"/>
<stop offset="0.7386" stop-color="#9D2B87"/>
<stop offset="0.8909" stop-color="#7C2E88"/>
<stop offset="1" stop-color="#5D2F88"/>
</radialGradient>
<linearGradient id="paint2_linear_3_18" x1="272" y1="-188" x2="207.5" y2="159.5" gradientUnits="userSpaceOnUse">
<stop stop-color="#5D2F88"/>
<stop offset="1" stop-color="#D62085"/>
</linearGradient>
<linearGradient id="paint3_linear_3_18" x1="68.2263" y1="49.6166" x2="122.385" y2="49.6166" gradientUnits="userSpaceOnUse">
<stop stop-color="#E01D84"/>
<stop offset="0.2382" stop-color="#DA1E85"/>
<stop offset="0.6577" stop-color="#C72085"/>
<stop offset="0.9993" stop-color="#B52284"/>
</linearGradient>
<radialGradient id="paint4_radial_3_18" cx="0" cy="0" r="1" gradientUnits="userSpaceOnUse" gradientTransform="translate(175.471 67.4837) rotate(0.13682) scale(121.582 101.667)">
<stop stop-color="#E01D84"/>
<stop offset="0.1391" stop-color="#DE1E85"/>
<stop offset="0.2851" stop-color="#D62085"/>
<stop offset="0.4342" stop-color="#C92386"/>
<stop offset="0.5856" stop-color="#B72786"/>
<stop offset="0.7386" stop-color="#9D2B87"/>
<stop offset="0.8909" stop-color="#7C2E88"/>
<stop offset="1" stop-color="#5D2F88"/>
</radialGradient>
<clipPath id="clip0_3_18">
<rect width="269" height="254" fill="white"/>
</clipPath>
</defs>
</svg>
