<svg width="304" height="290" viewBox="0 0 304 290" fill="none" xmlns="http://www.w3.org/2000/svg">
<g clip-path="url(#clip0_63_124)">
<g filter="url(#filter0_d_63_124)">
<path fill-rule="evenodd" clip-rule="evenodd" d="M286 33C286 43.4497 279.322 52.3397 270 55.6344V147C270 159.194 264.256 170.047 255.327 177C248.888 182.014 240.793 185 232 185C211.013 185 194 167.987 194 147V141V129V121.869C193.066 121.773 192.111 121.664 191.134 121.541C189.044 121.284 186.853 120.967 184.555 120.583C184.555 120.583 159.555 116.083 130.055 101.783C130.055 101.783 94.3555 108.583 82.5555 140.283C70.7555 171.983 87.0555 199.783 87.0555 199.783C122.569 269.21 234.255 252 261.455 196.283C230.87 296.242 91.7333 288.208 40.8555 212.283C34.0371 202.076 28.719 191.352 25.1599 180.213C25.1113 180.193 25.0627 180.181 25.0141 180.181C21.2141 176.081 17.6141 171.781 14.7141 166.981C13.2141 164.281 11.6141 161.381 11.1141 158.281C10.6141 155.181 11.8141 152.181 13.6141 149.681C14.0048 149.11 14.4227 148.575 14.8377 148.043L14.8379 148.043C15.8037 146.807 16.7546 145.589 17.3141 143.981C18.1141 141.881 18.3141 139.681 18.2141 137.481C18.0302 133.545 16.6152 129.569 15.1982 125.587C12.7626 118.743 10.3209 111.882 14.1141 105.181C16.1141 101.781 18.8141 98.5809 22.0141 96.1809C29.6141 90.2809 33.0141 87.2809 33.5141 76.6809C33.5892 75.3282 33.622 73.9615 33.6549 72.5912L33.6549 72.591C33.7095 70.3144 33.7644 68.0282 34.0141 65.7809C34.4141 61.1809 35.9141 57.1809 39.6141 54.1809C43.0141 51.4809 47.3141 49.9809 51.5141 49.2809C52.9703 49.0322 54.414 48.9097 55.8495 48.788C58.4556 48.5669 61.0348 48.3481 63.6141 47.3809C68.2141 45.6809 72.2141 42.6809 75.5141 39.0809C76.741 37.727 77.9143 36.3194 79.0944 34.9036L79.0946 34.9034C80.7037 32.9728 82.3257 31.0269 84.1141 29.1809C94.4141 18.4809 111.414 20.9809 122.814 28.5809C124.636 29.7957 127.362 32.3659 128.051 33.0245C143.151 32.7038 161.415 35.4632 180.969 45.2424C187.689 48.575 194.563 52.7345 201.514 57.8808C201.514 57.8808 235.014 81.4809 234.514 103.681C234.514 103.681 236.383 119.757 211.152 122.152L230 141H210V147C210 159.15 219.85 169 232 169C244.15 169 254 159.15 254 147V55.6344C244.678 52.3397 238 43.4497 238 33C238 19.7452 248.745 9 262 9C269.108 9 275.494 12.09 279.889 17C280.104 17.2403 280.314 17.4849 280.52 17.7338C283.943 21.8824 286 27.201 286 33ZM262 41C266.418 41 270 37.4183 270 33C270 28.5817 266.418 25 262 25C257.582 25 254 28.5817 254 33C254 37.4183 257.582 41 262 41Z" fill="#D72085"/>
</g>
<path fill-rule="evenodd" clip-rule="evenodd" d="M286 33C286 43.4497 279.322 52.3397 270 55.6344V147C270 167.987 252.987 185 232 185C211.013 185 194 167.987 194 147V141V129V105L230 141H210V147C210 159.15 219.85 169 232 169C244.15 169 254 159.15 254 147V55.6344C244.678 52.3397 238 43.4497 238 33C238 19.7452 248.745 9 262 9C275.255 9 286 19.7452 286 33ZM262 41C266.418 41 270 37.4183 270 33C270 28.5817 266.418 25 262 25C257.582 25 254 28.5817 254 33C254 37.4183 257.582 41 262 41Z" fill="#CCCCCC"/>
<path fill-rule="evenodd" clip-rule="evenodd" d="M286 33C286 43.4497 279.322 52.3397 270 55.6344V147C270 167.987 252.987 185 232 185C211.013 185 194 167.987 194 147V141V129V105L230 141H210V147C210 159.15 219.85 169 232 169C244.15 169 254 159.15 254 147V55.6344C244.678 52.3397 238 43.4497 238 33C238 19.7452 248.745 9 262 9C275.255 9 286 19.7452 286 33ZM262 41C266.418 41 270 37.4183 270 33C270 28.5817 266.418 25 262 25C257.582 25 254 28.5817 254 33C254 37.4183 257.582 41 262 41Z" fill="url(#paint0_linear_63_124)"/>
<path fill-rule="evenodd" clip-rule="evenodd" d="M262 49C270.837 49 278 41.8366 278 33C278 24.1634 270.837 17 262 17C253.163 17 246 24.1634 246 33C246 41.8366 253.163 49 262 49ZM262 41C266.418 41 270 37.4183 270 33C270 28.5817 266.418 25 262 25C257.582 25 254 28.5817 254 33C254 37.4183 257.582 41 262 41Z" fill="url(#paint1_linear_63_124)"/>
<path d="M286 33C286 43.4497 279.322 52.3397 270 55.6344V147C270 159.194 264.256 170.047 255.327 177H232C248.569 177 262 163.569 262 147V49C270.837 49 278 41.8366 278 33C278 24.1634 270.837 17 262 17H279.889C283.689 21.2461 286 26.8532 286 33Z" fill="url(#paint2_linear_63_124)"/>
<path d="M202 127L230 141H210L202 127Z" fill="url(#paint3_linear_63_124)"/>
<path d="M25.6141 180.581C20.4141 164.381 18.9141 147.281 21.9141 129.681C23.2141 122.381 25.2141 115.381 27.4141 108.281C27.4141 108.281 41.2141 62.9809 87.9141 42.2809C87.9141 42.2809 104.014 33.7809 128.214 33.1809C128.214 33.1809 124.914 29.9809 122.814 28.5809C111.414 20.9809 94.4141 18.4809 84.1141 29.1809C81.0141 32.3809 78.4141 35.8809 75.5141 39.0809C72.2141 42.6809 68.2141 45.6809 63.6141 47.3809C59.6141 48.8809 55.6141 48.5809 51.5141 49.2809C47.3141 49.9809 43.0141 51.4809 39.6141 54.1809C35.9141 57.1809 34.4141 61.1809 34.0141 65.7809C33.6141 69.3809 33.7141 73.0809 33.5141 76.6809C33.0141 87.2809 29.6141 90.2809 22.0141 96.1809C18.8141 98.5809 16.1141 101.781 14.1141 105.181C8.11407 115.781 17.7141 126.781 18.2141 137.481C18.3141 139.681 18.1141 141.881 17.3141 143.981C16.5141 146.281 14.9141 147.781 13.6141 149.681C11.8141 152.181 10.6141 155.181 11.1141 158.281C11.6141 161.381 13.2141 164.281 14.7141 166.981C17.6141 171.781 21.2141 176.081 25.0141 180.181C25.2141 180.181 25.4141 180.381 25.6141 180.581Z" fill="#E32286"/>
<path d="M87.0555 199.783C87.0555 199.783 70.7555 171.983 82.5555 140.283C94.3555 108.583 130.055 101.783 130.055 101.783C159.555 116.083 184.555 120.583 184.555 120.583C237.255 129.383 234.255 103.583 234.255 103.583C234.755 81.3829 201.255 57.7829 201.255 57.7829C141.555 13.4829 87.5555 42.0829 87.5555 42.0829C40.8555 62.7829 27.0555 108.083 27.0555 108.083C24.8555 115.183 22.8555 122.183 21.5555 129.483C16.4555 159.183 24.1555 187.283 40.8555 212.283C91.7333 288.208 230.87 296.242 261.455 196.283C234.255 252 122.569 269.21 87.0555 199.783Z" fill="url(#paint4_linear_63_124)"/>
<path d="M234.514 103.681C235.014 81.4808 201.514 57.8808 201.514 57.8808C141.814 13.6808 87.8141 42.2808 87.8141 42.2808C41.1141 62.9808 27.3141 108.281 27.3141 108.281C24.6141 115.981 22.2141 127.781 22.2141 127.781C19.3141 142.581 20.6141 156.281 20.6141 156.281C21.8141 169.381 24.7141 178.181 24.7141 178.181C27.7141 187.581 29.1141 190.481 29.1141 190.481C29.0141 190.181 28.5141 187.981 28.5141 187.981C28.5141 187.981 24.3141 167.781 28.2141 148.381C28.2141 148.381 31.6141 128.181 45.4141 112.581C45.4141 112.581 67.8141 80.6809 109.514 93.1809C109.514 93.1809 118.514 96.3808 121.614 97.9808C124.714 99.4808 130.114 101.781 130.114 101.781C159.614 116.081 184.614 120.581 184.614 120.581C237.514 129.481 234.514 103.681 234.514 103.681Z" fill="url(#paint5_radial_63_124)"/>
<path d="M133.414 63.4809L99.3141 52.8809C99.1141 52.8809 98.1141 52.3809 96.3141 52.8809C96.3141 52.8809 76.2141 57.9809 79.7141 68.9809C79.7141 68.9809 81.8141 75.8809 87.5141 82.5809L125.014 80.7809L133.414 63.4809Z" fill="url(#paint6_linear_63_124)"/>
<circle cx="164" cy="75" r="14" fill="#F0F0F0"/>
<circle cx="167" cy="79" r="6" fill="#5D3089"/>
<g style="mix-blend-mode:soft-light">
<circle cx="164" cy="75" r="14" fill="#D72085"/>
</g>
</g>
<defs>
<filter id="filter0_d_63_124" x="0.454545" y="0.212121" width="303.121" height="289.395" filterUnits="userSpaceOnUse" color-interpolation-filters="sRGB">
<feFlood flood-opacity="0" result="BackgroundImageFix"/>
<feColorMatrix in="SourceAlpha" type="matrix" values="0 0 0 0 0 0 0 0 0 0 0 0 0 0 0 0 0 0 127 0" result="hardAlpha"/>
<feOffset dx="3.51515" dy="5.27273"/>
<feGaussianBlur stdDeviation="7.0303"/>
<feComposite in2="hardAlpha" operator="out"/>
<feColorMatrix type="matrix" values="0 0 0 0 0.108333 0 0 0 0 0.108333 0 0 0 0 0.108333 0 0 0 0.2 0"/>
<feBlend mode="normal" in2="BackgroundImageFix" result="effect1_dropShadow_63_124"/>
<feBlend mode="normal" in="SourceGraphic" in2="effect1_dropShadow_63_124" result="shape"/>
</filter>
<linearGradient id="paint0_linear_63_124" x1="258.108" y1="185" x2="217.629" y2="18.8624" gradientUnits="userSpaceOnUse">
<stop stop-color="#5D2F88"/>
<stop offset="1" stop-color="#D62085"/>
</linearGradient>
<linearGradient id="paint1_linear_63_124" x1="262" y1="25" x2="262.378" y2="48.9941" gradientUnits="userSpaceOnUse">
<stop stop-color="#5D2F88"/>
<stop offset="1" stop-color="#5D2F88" stop-opacity="0"/>
</linearGradient>
<linearGradient id="paint2_linear_63_124" x1="238.75" y1="17" x2="238.75" y2="165.095" gradientUnits="userSpaceOnUse">
<stop stop-color="#5D2F88" stop-opacity="0"/>
<stop offset="0.226403" stop-color="#5D2F88"/>
<stop offset="1" stop-color="#5D2F88" stop-opacity="0"/>
</linearGradient>
<linearGradient id="paint3_linear_63_124" x1="202" y1="127" x2="230.747" y2="139.247" gradientUnits="userSpaceOnUse">
<stop stop-color="#E32286" stop-opacity="0"/>
<stop offset="1" stop-color="#E32286"/>
</linearGradient>
<linearGradient id="paint4_linear_63_124" x1="49.1518" y1="252.784" x2="150" y2="110" gradientUnits="userSpaceOnUse">
<stop stop-color="#E01D84"/>
<stop offset="0.4006" stop-color="#DF1D85"/>
<stop offset="0.695378" stop-color="#932C87"/>
<stop offset="1" stop-color="#5D2F88"/>
</linearGradient>
<radialGradient id="paint5_radial_63_124" cx="0" cy="0" r="1" gradientUnits="userSpaceOnUse" gradientTransform="translate(186.471 85.4837) scale(128.029 107.058)">
<stop stop-color="#E01D84"/>
<stop offset="0.1391" stop-color="#DE1E85"/>
<stop offset="0.2851" stop-color="#D62085"/>
<stop offset="0.4342" stop-color="#C92386"/>
<stop offset="0.5856" stop-color="#B72786"/>
<stop offset="0.7386" stop-color="#9D2B87"/>
<stop offset="0.8909" stop-color="#7C2E88"/>
<stop offset="1" stop-color="#5D2F88"/>
</radialGradient>
<linearGradient id="paint6_linear_63_124" x1="79.2263" y1="67.6166" x2="133.385" y2="67.6166" gradientUnits="userSpaceOnUse">
<stop stop-color="#E01D84"/>
<stop offset="0.2382" stop-color="#DA1E85"/>
<stop offset="0.6577" stop-color="#C72085"/>
</linearGradient>
<clipPath id="clip0_63_124">
<rect width="304" height="290" fill="white"/>
</clipPath>
</defs>
</svg>
