<svg width="293" height="279" viewBox="0 0 293 279" fill="none" xmlns="http://www.w3.org/2000/svg">
<g clip-path="url(#clip0_3_51)">
<g filter="url(#filter0_d_3_51)">
<path fill-rule="evenodd" clip-rule="evenodd" d="M263.842 79.48C270.497 81.8895 275.316 88.2 275.316 95.6579C275.316 103.116 270.497 109.426 263.842 111.836V130.079C263.842 149.068 248.41 164.5 229.421 164.5C210.432 164.5 195 149.068 195 130.079V108.968C193.751 108.849 192.462 108.708 191.133 108.541C189.043 108.284 186.852 107.966 184.555 107.583C184.555 107.583 159.555 103.083 130.055 88.7829C130.055 88.7829 94.3555 95.5829 82.5555 127.283C70.7555 158.983 87.0555 186.783 87.0555 186.783C87.0555 186.783 98.1555 208.483 122.355 218.483C122.355 218.483 172.5 238.5 204.755 222.583C204.755 222.583 208.5 222.583 261.455 183.283C261.455 183.283 253.555 214.483 214.255 241.483C214.255 241.483 171.555 272.683 109.055 251.483C109.055 251.483 66.8555 238.083 40.8555 199.283C34.0371 189.076 28.719 178.352 25.1599 167.213C25.1113 167.193 25.0627 167.181 25.0141 167.181C21.2141 163.081 17.6141 158.781 14.7141 153.981C13.2141 151.281 11.6141 148.381 11.1141 145.281C10.6141 142.181 11.8141 139.181 13.6141 136.681C14.0049 136.11 14.4228 135.575 14.8379 135.043C15.8037 133.807 16.7546 132.589 17.3141 130.981C18.1141 128.881 18.3141 126.681 18.2141 124.481C18.0302 120.545 16.6152 116.569 15.1982 112.587C12.7626 105.743 10.3209 98.8821 14.1141 92.1809C16.1141 88.7809 18.8141 85.5809 22.0141 83.1809C29.6141 77.2809 33.0141 74.2809 33.5141 63.6809C33.5892 62.3285 33.622 60.962 33.6549 59.592L33.6549 59.5918L33.6549 59.5917L33.6549 59.5915L33.6549 59.5914L33.6549 59.5912L33.6549 59.591C33.7095 57.3144 33.7644 55.0282 34.0141 52.7809C34.4141 48.1809 35.9141 44.1809 39.6141 41.1809C43.0141 38.4809 47.3141 36.9809 51.5141 36.2809C52.9703 36.0322 54.414 35.9097 55.8495 35.788C58.4556 35.5669 61.0348 35.3481 63.6141 34.3809C68.2141 32.6809 72.2141 29.6809 75.5141 26.0809C76.741 24.727 77.9143 23.3194 79.0944 21.9036C80.7036 19.973 82.3256 18.027 84.1141 16.1809C94.4141 5.48086 111.414 7.98085 122.814 15.5809C124.636 16.7957 127.362 19.3659 128.051 20.0245C143.151 19.7038 161.414 22.4631 180.968 32.2422C187.689 35.5748 194.563 39.7343 201.514 44.8808C201.514 44.8808 235.014 68.4808 234.514 90.6808C234.514 90.6808 236.503 107.788 208.679 109.337L223.684 124.342H206.474V130.079C206.474 142.757 216.743 153.026 229.421 153.026C242.099 153.026 252.368 142.757 252.368 130.079V111.836C245.714 109.426 240.895 103.116 240.895 95.6579C240.895 88.2 245.714 81.8895 252.368 79.48V14.7368C252.368 11.5685 254.937 9 258.105 9C261.274 9 263.842 11.5685 263.842 14.7368V79.48ZM252.368 95.6579C252.368 98.8132 254.95 101.395 258.105 101.395C261.261 101.395 263.842 98.8132 263.842 95.6579C263.842 92.5026 261.261 89.9211 258.105 89.9211C254.95 89.9211 252.368 92.5026 252.368 95.6579Z" fill="#5D3089"/>
</g>
<g clip-path="url(#clip1_3_51)">
<path d="M25.6141 167.581C20.4141 151.381 18.9141 134.281 21.9141 116.681C23.2141 109.381 25.2141 102.381 27.4141 95.2809C27.4141 95.2809 41.2141 49.9809 87.9141 29.2809C87.9141 29.2809 104.014 20.7809 128.214 20.1809C128.214 20.1809 124.914 16.9809 122.814 15.5809C111.414 7.98085 94.4141 5.48085 84.1141 16.1809C81.0141 19.3809 78.4141 22.8809 75.5141 26.0809C72.2141 29.6809 68.2141 32.6809 63.6141 34.3809C59.6141 35.8809 55.6141 35.5809 51.5141 36.2809C47.3141 36.9809 43.0141 38.4809 39.6141 41.1809C35.9141 44.1809 34.4141 48.1809 34.0141 52.7809C33.6141 56.3809 33.7141 60.0809 33.5141 63.6809C33.0141 74.2809 29.6141 77.2809 22.0141 83.1809C18.8141 85.5809 16.1141 88.7809 14.1141 92.1809C8.11407 102.781 17.7141 113.781 18.2141 124.481C18.3141 126.681 18.1141 128.881 17.3141 130.981C16.5141 133.281 14.9141 134.781 13.6141 136.681C11.8141 139.181 10.6141 142.181 11.1141 145.281C11.6141 148.381 13.2141 151.281 14.7141 153.981C17.6141 158.781 21.2141 163.081 25.0141 167.181C25.2141 167.181 25.4141 167.381 25.6141 167.581Z" fill="#E32286"/>
<path d="M204.755 222.583C172.5 238.5 122.355 218.483 122.355 218.483C98.1555 208.483 87.0555 186.783 87.0555 186.783C87.0555 186.783 70.7555 158.983 82.5555 127.283C94.3555 95.5829 130.055 88.7829 130.055 88.7829C159.555 103.083 184.555 107.583 184.555 107.583C237.255 116.383 234.255 90.5829 234.255 90.5829C234.755 68.3829 201.255 44.7829 201.255 44.7829C141.555 0.482931 87.5555 29.0829 87.5555 29.0829C40.8555 49.7829 27.0555 95.0829 27.0555 95.0829C24.8555 102.183 22.8555 109.183 21.5555 116.483C16.4555 146.183 24.1555 174.283 40.8555 199.283C66.8555 238.083 109.055 251.483 109.055 251.483C171.555 272.683 214.255 241.483 214.255 241.483C253.555 214.483 261.455 183.283 261.455 183.283C208.5 222.583 204.755 222.583 204.755 222.583Z" fill="url(#paint0_linear_3_51)"/>
<path d="M234.514 90.6808C235.014 68.4808 201.514 44.8808 201.514 44.8808C141.814 0.680847 87.8141 29.2808 87.8141 29.2808C41.1141 49.9808 27.3141 95.2808 27.3141 95.2808C24.6141 102.981 22.2141 114.781 22.2141 114.781C19.3141 129.581 20.6141 143.281 20.6141 143.281C21.8141 156.381 24.7141 165.181 24.7141 165.181C27.7141 174.581 29.1141 177.481 29.1141 177.481C29.0141 177.181 28.5141 174.981 28.5141 174.981C28.5141 174.981 24.3141 154.781 28.2141 135.381C28.2141 135.381 31.6141 115.181 45.4141 99.5808C45.4141 99.5808 67.8141 67.6809 109.514 80.1809C109.514 80.1809 118.514 83.3808 121.614 84.9808C124.714 86.4808 130.114 88.7808 130.114 88.7808C159.614 103.081 184.614 107.581 184.614 107.581C237.514 116.481 234.514 90.6808 234.514 90.6808Z" fill="url(#paint1_radial_3_51)"/>
<path d="M208.474 130.079V126.342H223.684H228.513L225.098 122.928L196.414 94.2437L193 90.8295V95.6579V130.079C193 150.172 209.328 166.5 229.421 166.5C249.515 166.5 265.842 150.172 265.842 130.079V113.183C272.555 110.183 277.316 103.502 277.316 95.6579C277.316 87.8135 272.555 81.1333 265.842 78.1323V14.7368C265.842 10.4639 262.378 7 258.105 7C253.832 7 250.368 10.4639 250.368 14.7368V78.1323C243.656 81.1333 238.895 87.8135 238.895 95.6579C238.895 103.502 243.656 110.183 250.368 113.183V130.079C250.368 141.653 240.995 151.026 229.421 151.026C217.847 151.026 208.474 141.653 208.474 130.079ZM258.105 99.3947C256.055 99.3947 254.368 97.7086 254.368 95.6579C254.368 93.6072 256.055 91.9211 258.105 91.9211C260.156 91.9211 261.842 93.6072 261.842 95.6579C261.842 97.7086 260.156 99.3947 258.105 99.3947Z" fill="url(#paint2_linear_3_51)" stroke="#5D2F88" stroke-width="4"/>
<path d="M133.414 50.4809L99.3141 39.8809C99.1141 39.8809 98.1141 39.3809 96.3141 39.8809C96.3141 39.8809 76.2141 44.9809 79.7141 55.9809C79.7141 55.9809 81.8141 62.8809 87.5141 69.5809L125.014 67.7809L133.414 50.4809Z" fill="url(#paint3_linear_3_51)"/>
<path d="M234.514 90.6808C235.014 68.4808 201.514 44.8808 201.514 44.8808C141.814 0.680847 87.8141 29.2808 87.8141 29.2808C41.1141 49.9808 27.3141 95.2808 27.3141 95.2808C24.6141 102.981 22.2141 114.781 22.2141 114.781C19.3141 129.581 20.6141 143.281 20.6141 143.281C21.8141 156.381 24.7141 165.181 24.7141 165.181C27.7141 174.581 29.1141 177.481 29.1141 177.481C29.0141 177.181 28.5141 174.981 28.5141 174.981C28.5141 174.981 24.3141 154.781 28.2141 135.381C28.2141 135.381 31.6141 115.181 45.4141 99.5808C45.4141 99.5808 67.8141 67.6809 109.514 80.1809C109.514 80.1809 118.514 83.3808 121.614 84.9808C124.714 86.4808 130.114 88.7808 130.114 88.7808C159.614 103.081 184.614 107.581 184.614 107.581C237.514 116.481 234.514 90.6808 234.514 90.6808Z" fill="url(#paint4_radial_3_51)"/>
<circle cx="167" cy="65" r="11" fill="#F5F5F5"/>
<circle cx="167.5" cy="65.5" r="5.5" fill="#5D3089"/>
</g>
</g>
<defs>
<filter id="filter0_d_3_51" x="0.454545" y="0.212121" width="292.437" height="277.987" filterUnits="userSpaceOnUse" color-interpolation-filters="sRGB">
<feFlood flood-opacity="0" result="BackgroundImageFix"/>
<feColorMatrix in="SourceAlpha" type="matrix" values="0 0 0 0 0 0 0 0 0 0 0 0 0 0 0 0 0 0 127 0" result="hardAlpha"/>
<feOffset dx="3.51515" dy="5.27273"/>
<feGaussianBlur stdDeviation="7.0303"/>
<feComposite in2="hardAlpha" operator="out"/>
<feColorMatrix type="matrix" values="0 0 0 0 0.108333 0 0 0 0 0.108333 0 0 0 0 0.108333 0 0 0 0.2 0"/>
<feBlend mode="normal" in2="BackgroundImageFix" result="effect1_dropShadow_3_51"/>
<feBlend mode="normal" in="SourceGraphic" in2="effect1_dropShadow_3_51" result="shape"/>
</filter>
<linearGradient id="paint0_linear_3_51" x1="49.1518" y1="239.784" x2="173.587" y2="107.406" gradientUnits="userSpaceOnUse">
<stop stop-color="#E01D84"/>
<stop offset="0.4006" stop-color="#DF1D85"/>
<stop offset="0.7698" stop-color="#932C87"/>
<stop offset="1" stop-color="#5D2F88"/>
</linearGradient>
<radialGradient id="paint1_radial_3_51" cx="0" cy="0" r="1" gradientUnits="userSpaceOnUse" gradientTransform="translate(186.471 72.4837) rotate(0.13682) scale(121.582 101.667)">
<stop stop-color="#E01D84"/>
<stop offset="0.1391" stop-color="#DE1E85"/>
<stop offset="0.2851" stop-color="#D62085"/>
<stop offset="0.4342" stop-color="#C92386"/>
<stop offset="0.5856" stop-color="#B72786"/>
<stop offset="0.7386" stop-color="#9D2B87"/>
<stop offset="0.8909" stop-color="#7C2E88"/>
<stop offset="1" stop-color="#5D2F88"/>
</radialGradient>
<linearGradient id="paint2_linear_3_51" x1="283" y1="-183" x2="218.5" y2="164.5" gradientUnits="userSpaceOnUse">
<stop stop-color="#5D2F88"/>
<stop offset="1" stop-color="#D62085"/>
</linearGradient>
<linearGradient id="paint3_linear_3_51" x1="79.2263" y1="54.6166" x2="133.385" y2="54.6166" gradientUnits="userSpaceOnUse">
<stop stop-color="#E01D84"/>
<stop offset="0.2382" stop-color="#DA1E85"/>
<stop offset="0.6577" stop-color="#C72085"/>
<stop offset="0.9993" stop-color="#B52284"/>
</linearGradient>
<radialGradient id="paint4_radial_3_51" cx="0" cy="0" r="1" gradientUnits="userSpaceOnUse" gradientTransform="translate(186.471 72.4837) rotate(0.13682) scale(121.582 101.667)">
<stop stop-color="#E01D84"/>
<stop offset="0.1391" stop-color="#DE1E85"/>
<stop offset="0.2851" stop-color="#D62085"/>
<stop offset="0.4342" stop-color="#C92386"/>
<stop offset="0.5856" stop-color="#B72786"/>
<stop offset="0.7386" stop-color="#9D2B87"/>
<stop offset="0.8909" stop-color="#7C2E88"/>
<stop offset="1" stop-color="#5D2F88"/>
</radialGradient>
<clipPath id="clip0_3_51">
<rect width="293" height="279" fill="white"/>
</clipPath>
<clipPath id="clip1_3_51">
<rect width="269" height="254" fill="white" transform="translate(11 5)"/>
</clipPath>
</defs>
</svg>
